<?xml version="1.0" standalone="no"?>
<!DOCTYPE svg PUBLIC "-//W3C//DTD SVG 20010904//EN"
 "http://www.w3.org/TR/2001/REC-SVG-20010904/DTD/svg10.dtd">
<svg version="1.0" xmlns="http://www.w3.org/2000/svg"
 width="448.000000pt" height="322.000000pt" viewBox="0 0 448.000000 322.000000"
 preserveAspectRatio="xMidYMid meet">

<g transform="translate(0.000000,322.000000) scale(0.100000,-0.100000)"
fill="#000000" stroke="none">
<path d="M1185 2707 c-4 -8 3 -40 14 -72 62 -177 194 -295 388 -346 63 -17
124 -23 323 -29 156 -5 259 -12 283 -20 153 -54 196 -250 79 -367 -60 -59 -95
-65 -422 -73 -340 -8 -383 -16 -487 -94 -75 -57 -115 -114 -150 -212 -28 -79
-28 -80 -31 -381 l-3 -303 260 0 261 0 0 290 0 290 119 0 119 0 191 -290 191
-290 299 0 299 0 76 -119 c42 -66 83 -124 90 -130 9 -8 69 -11 180 -9 l166 3
-85 127 -85 128 230 0 229 0 -110 168 c-61 92 -116 173 -123 180 -9 9 -66 12
-239 10 l-227 -3 115 -172 c63 -95 115 -175 115 -178 0 -3 -73 -4 -161 -3
l-161 3 -224 325 c-123 179 -223 327 -223 330 -1 3 29 21 66 40 86 45 198 154
246 240 49 89 70 181 71 315 1 276 -128 477 -373 580 -146 61 -205 66 -778 72
-455 5 -523 3 -528 -10z"/>
<path d="M2750 1303 c0 -4 19 -35 41 -70 l41 -63 90 0 c49 0 88 4 86 8 -1 5
-21 36 -43 70 l-40 62 -87 0 c-49 0 -88 -3 -88 -7z"/>
</g>
</svg>
