<?xml version="1.0" standalone="no"?>
<!DOCTYPE svg PUBLIC "-//W3C//DTD SVG 20010904//EN"
 "http://www.w3.org/TR/2001/REC-SVG-20010904/DTD/svg10.dtd">
<svg version="1.0" xmlns="http://www.w3.org/2000/svg"
 width="720.000000pt" height="346.000000pt" viewBox="0 0 720.000000 346.000000"
 preserveAspectRatio="xMidYMid meet">

<g transform="translate(0.000000,346.000000) scale(0.100000,-0.100000)"
fill="#000000" stroke="none">
<path d="M1010 2038 c0 -25 40 -77 70 -93 19 -10 74 -20 132 -24 108 -9 128
-19 128 -68 0 -47 -32 -63 -122 -63 -105 0 -150 -13 -182 -51 -24 -29 -26 -37
-26 -135 l0 -105 73 3 72 3 3 83 3 82 32 -1 c29 0 37 -8 86 -85 l55 -84 89 0
c98 0 96 -5 37 75 -20 28 -46 65 -56 83 l-19 33 32 25 c52 41 73 84 73 151 0
51 -5 66 -31 102 -50 70 -86 81 -281 81 -128 0 -168 -3 -168 -12z"/>
<path d="M2584 2038 c-81 -11 -119 -28 -175 -77 -67 -58 -92 -123 -87 -221 2
-64 8 -84 33 -126 57 -91 194 -138 346 -118 l63 9 12 57 c6 32 9 59 7 62 -3 2
-19 0 -36 -5 -18 -5 -61 -9 -97 -9 -113 0 -166 54 -158 157 5 57 25 92 72 127
24 18 42 21 132 21 116 -1 111 -5 98 77 -7 40 1 37 -124 52 -14 1 -53 -1 -86
-6z"/>
<path d="M4262 2038 c-200 -22 -315 -187 -260 -372 37 -123 210 -199 382 -166
134 25 218 103 238 222 36 210 -117 344 -360 316z m99 -119 c49 -15 75 -44 93
-101 12 -41 12 -52 -3 -96 -39 -114 -168 -150 -249 -69 -75 75 -46 220 53 263
38 17 58 17 106 3z"/>
<path d="M3549 2033 l-106 -4 -7 -222 c-4 -122 -10 -241 -13 -266 l-6 -44 189
5 c205 5 246 14 279 64 42 65 22 161 -42 194 l-32 17 24 11 c81 37 86 195 8
231 -29 13 -153 19 -294 14z m179 -115 c19 -19 15 -66 -7 -78 -11 -5 -45 -10
-75 -10 l-56 0 0 34 c0 60 6 66 69 66 31 0 62 -5 69 -12z m6 -214 c20 -20 20
-43 0 -72 -13 -19 -24 -22 -85 -22 l-69 0 0 33 c0 71 6 77 75 77 44 0 68 -5
79 -16z"/>
<path d="M5324 2015 c9 -14 23 -36 32 -50 15 -22 23 -25 80 -25 35 0 64 3 64
6 0 3 -14 25 -30 50 l-31 44 -66 0 -65 0 16 -25z"/>
<path d="M1839 1963 c-95 -186 -204 -391 -221 -415 -30 -44 -25 -48 70 -48
l87 0 35 75 35 74 102 1 102 0 22 -75 23 -75 89 0 c81 0 88 2 82 18 -14 35
-137 369 -162 440 l-25 72 -102 0 -103 0 -34 -67z m158 -130 c11 -35 18 -65
15 -68 -9 -9 -101 -5 -106 4 -8 13 54 145 63 135 5 -5 17 -37 28 -71z"/>
<path d="M2897 1833 c-4 -109 -10 -228 -13 -265 l-7 -68 215 0 216 0 6 31 c3
17 6 44 6 59 l0 27 -132 -1 c-132 -1 -133 -1 -136 23 -2 12 -1 34 2 47 6 23 9
24 115 24 l108 0 7 38 c14 86 19 82 -104 82 l-110 0 0 45 0 45 129 0 c143 0
141 -1 141 71 l0 39 -218 0 -219 0 -6 -197z"/>
<path d="M4700 2021 c0 -5 19 -38 43 -73 24 -35 56 -86 71 -115 l28 -51 -43
-57 c-24 -32 -53 -70 -63 -84 -11 -14 -39 -52 -63 -83 l-44 -58 93 0 93 0 53
81 c29 45 56 78 60 74 4 -3 25 -39 47 -78 l41 -72 97 -3 98 -3 -27 43 c-15 24
-49 77 -74 118 -26 41 -52 84 -60 96 -12 19 -8 28 46 100 33 43 74 100 92 127
l33 47 -88 0 -88 0 -40 -65 c-22 -36 -42 -65 -46 -65 -3 0 -11 10 -17 23 -6
12 -22 40 -35 62 l-24 40 -91 3 c-55 2 -92 -1 -92 -7z"/>
<path d="M5516 1928 c5 -7 41 -62 81 -123 l73 -110 -115 -3 c-66 -1 -115 -7
-115 -12 0 -6 25 -48 57 -95 l56 -85 124 0 123 0 -24 38 c-14 20 -41 62 -60
92 l-36 55 160 3 c88 1 160 5 160 8 0 3 -36 59 -81 124 l-80 120 -165 0 c-130
0 -164 -3 -158 -12z"/>
</g>
</svg>
